<?xml version="1.0" standalone="no"?>
<!DOCTYPE svg PUBLIC "-//W3C//DTD SVG 20010904//EN"
 "http://www.w3.org/TR/2001/REC-SVG-20010904/DTD/svg10.dtd">
<svg version="1.0" xmlns="http://www.w3.org/2000/svg"
 width="260.000000pt" height="260.000000pt" viewBox="0 0 260.000000 260.000000"
 preserveAspectRatio="xMidYMid meet">
<metadata>
Created by potrace 1.11, written by Peter Selinger 2001-2013
</metadata>
<g transform="translate(0.000000,260.000000) scale(0.100000,-0.100000)"
fill="#000000" stroke="none">
<path d="M631 2582 c0 -10 3 -12 5 -6 7 16 44 5 44 -12 0 -7 -4 -15 -9 -18
-14 -9 -9 -76 6 -76 7 0 13 4 13 9 0 5 9 7 20 4 13 -3 20 0 20 8 1 10 5 9 14
-4 9 -11 15 -14 18 -7 4 13 58 3 58 -11 0 -5 10 -8 23 -8 16 1 18 2 5 6 -22 6
-23 19 -2 27 22 8 21 9 27 -16 6 -20 8 -21 24 -7 10 9 37 21 61 29 43 13 70
35 59 47 -11 10 14 33 35 33 10 0 17 4 14 9 -3 5 -103 9 -221 9 -194 0 -215
-2 -214 -16z m89 -28 c0 -9 -5 -14 -12 -12 -18 6 -21 28 -4 28 9 0 16 -7 16
-16z m60 -9 c0 -8 -7 -15 -15 -15 -9 0 -12 6 -9 15 4 8 10 15 15 15 5 0 9 -7
9 -15z"/>
<path d="M468 2560 c-2 -6 -27 -13 -56 -17 -30 -3 -52 -11 -52 -18 0 -6 -7
-12 -15 -12 -8 0 -15 4 -15 9 0 4 -9 8 -21 8 -15 0 -19 -5 -15 -15 4 -12 0
-14 -22 -9 -45 11 -46 10 -43 -23 2 -27 -1 -32 -13 -27 -9 3 -23 1 -30 -6 -8
-6 -30 -12 -48 -12 -18 0 -37 -4 -43 -8 -5 -4 -21 -11 -33 -15 -13 -4 -32 -15
-42 -25 -17 -17 -14 -17 65 -15 69 2 87 6 106 24 12 11 28 21 35 21 7 0 14 6
17 13 3 8 12 5 29 -10 13 -13 34 -23 46 -23 12 0 22 -3 22 -6 0 -16 -36 -64
-47 -64 -8 0 -16 -6 -19 -14 -4 -9 -15 -13 -32 -10 -37 7 -45 14 -32 29 8 9 8
15 0 20 -13 8 -50 -3 -50 -16 0 -5 -7 -9 -15 -9 -8 0 -15 7 -15 15 0 22 -27
18 -33 -4 -8 -32 7 -83 28 -95 11 -6 24 -17 28 -23 4 -7 16 -13 25 -13 10 0
28 -8 41 -17 24 -16 25 -16 51 16 18 21 32 29 43 25 11 -4 17 -1 17 7 0 25 50
62 86 65 32 3 35 1 31 -16 -7 -27 10 -35 40 -19 20 11 28 11 51 -3 15 -9 30
-30 35 -47 4 -17 11 -31 16 -31 4 0 14 -18 21 -40 7 -21 17 -37 21 -34 5 3 9
-2 9 -10 0 -12 -6 -13 -32 -5 -39 11 -43 7 -28 -22 12 -22 12 -22 -34 -16 -47
7 -53 3 -37 -22 11 -17 -7 -51 -27 -51 -7 0 -17 10 -22 23 l-9 22 0 -23 c-1
-21 -4 -23 -38 -17 -42 6 -57 15 -26 15 22 0 27 28 8 42 -5 4 11 8 37 8 26 0
50 5 53 10 3 6 15 10 26 10 10 0 19 5 19 10 0 6 7 10 15 10 23 0 18 18 -7 26
-13 4 -24 2 -26 -5 -5 -16 -22 -14 -22 4 0 21 -12 19 -33 -5 -18 -22 -37 -26
-37 -9 0 5 -4 7 -10 4 -5 -3 -10 -2 -10 2 0 5 9 14 20 21 12 7 18 17 15 22 -4
6 2 13 12 17 18 7 42 32 43 46 0 10 -48 9 -54 -2 -3 -4 -20 -11 -37 -15 -32
-6 -35 -18 -18 -75 2 -7 -1 -16 -8 -18 -7 -2 -15 7 -19 21 -3 13 -14 32 -25
42 -16 15 -23 15 -43 4 -16 -8 -22 -18 -18 -28 4 -11 7 -12 10 -4 2 7 12 12
22 12 13 0 17 -7 16 -26 -1 -21 -5 -25 -23 -21 -13 2 -31 -1 -40 -8 -11 -8
-25 -10 -39 -5 -13 5 -26 4 -33 -3 -8 -8 -11 -8 -11 0 0 6 7 13 15 17 8 3 15
13 15 21 0 9 -4 14 -8 11 -11 -7 -73 25 -67 35 6 9 -39 42 -62 45 -7 1 -13 -2
-13 -8 0 -6 -11 -3 -25 6 l-25 16 0 -85 c0 -62 4 -87 13 -91 18 -7 67 13 67
26 0 6 7 19 16 28 15 14 15 17 0 27 -23 17 -20 23 8 18 18 -4 26 -13 30 -37 3
-17 17 -39 30 -50 32 -24 25 -48 -10 -32 -13 6 -22 17 -19 24 10 28 -27 10
-39 -19 -8 -18 -15 -26 -18 -19 -3 10 -9 8 -24 -7 -10 -11 -27 -23 -36 -26
-17 -6 -18 -64 -18 -1002 l0 -995 24 0 c21 0 24 4 22 30 -2 32 13 53 36 49 7
-1 27 4 43 11 43 18 125 25 125 11 0 -6 -12 -16 -26 -21 -18 -7 -24 -15 -20
-27 4 -9 -1 -24 -10 -34 -17 -18 -13 -19 119 -19 l137 0 0 24 c0 16 7 27 20
31 26 8 40 -1 40 -26 0 -44 82 -4 94 47 5 18 12 24 22 20 9 -3 20 -6 25 -6 5
0 7 -11 3 -25 -4 -16 -2 -25 5 -25 9 0 9 -5 1 -20 -11 -20 -8 -20 583 -20
l593 0 -4 35 c-5 41 14 48 24 9 8 -32 39 -44 112 -44 44 1 53 3 39 11 -28 16
-10 29 25 17 28 -10 30 -12 12 -19 -10 -4 110 -8 269 -8 l287 -1 0 54 c0 52
-1 55 -30 61 -33 7 -50 1 -50 -21 0 -15 -75 -74 -95 -74 -7 0 -18 6 -24 14 -8
9 -25 12 -54 9 -54 -6 -74 10 -82 67 -6 43 -5 46 24 58 38 17 78 7 60 -14 -9
-11 -8 -14 5 -14 9 0 19 7 22 15 4 8 14 15 24 15 10 0 20 5 22 10 4 13 43 23
91 24 21 0 37 5 37 12 0 7 10 9 25 6 l25 -4 0 151 c0 144 -1 151 -20 151 -11
0 -20 5 -20 11 0 6 9 13 20 16 19 5 20 14 20 324 0 206 -4 319 -10 319 -5 0
-10 5 -10 11 0 5 5 7 10 4 6 -4 10 16 10 54 0 38 -4 61 -12 64 -10 4 -10 6 0
6 20 1 14 43 -10 69 -16 17 -19 26 -10 29 6 3 12 11 12 19 0 9 4 13 9 10 4 -3
8 5 7 17 -1 16 -7 21 -20 19 -15 -3 -18 1 -13 17 3 12 1 24 -4 27 -5 3 -9 12
-9 20 0 8 4 13 9 10 5 -3 12 2 15 11 6 15 8 15 16 3 6 -10 10 33 10 122 0 100
-3 138 -12 141 -10 4 -10 6 0 6 17 1 17 142 0 159 -10 10 -10 15 1 22 23 14 1
74 -28 78 -18 3 -22 0 -18 -11 11 -28 -6 -27 -25 0 l-18 28 0 -31 c0 -31 21
-60 33 -47 4 3 7 -1 7 -10 0 -8 -6 -17 -12 -20 -10 -3 -10 -7 0 -19 7 -9 13
-32 14 -52 1 -28 5 -36 20 -36 10 0 18 -4 18 -10 0 -5 -9 -10 -20 -10 -23 0
-24 -4 -8 -29 6 -10 8 -26 5 -35 -11 -27 -49 2 -42 32 7 27 -20 41 -66 34 -31
-5 -38 -19 -14 -28 8 -4 15 -10 15 -14 0 -13 -48 -18 -60 -6 -7 7 -15 5 -26
-6 -15 -14 -12 -18 30 -38 31 -16 49 -20 58 -14 14 11 124 11 134 1 4 -4 1
-13 -5 -21 -9 -11 -9 -19 0 -34 7 -10 9 -30 6 -44 -6 -22 -13 -26 -46 -26 -31
-1 -40 3 -44 19 -4 16 1 21 24 26 22 4 29 11 29 29 0 30 -29 32 -53 4 -18 -22
-37 -19 -37 5 0 7 6 15 13 18 6 2 9 8 5 12 -4 4 -23 -9 -43 -29 -28 -29 -32
-36 -17 -36 10 0 27 -7 38 -15 19 -15 19 -16 -1 -14 -46 3 -86 -2 -81 -10 3
-5 14 -7 24 -4 12 3 22 -4 30 -21 9 -21 9 -26 -2 -26 -21 0 -40 -28 -29 -42 5
-7 9 -26 8 -43 -1 -19 6 -35 18 -44 19 -14 19 -14 -6 -27 -14 -8 -29 -23 -32
-34 -7 -21 9 -50 26 -50 13 0 11 34 -3 49 -11 10 -8 12 12 9 21 -3 25 -9 27
-40 1 -30 -3 -38 -16 -38 -26 0 -33 -12 -14 -25 18 -13 10 -35 -13 -35 -8 0
-14 -7 -14 -16 0 -10 6 -14 15 -10 18 7 20 -19 3 -31 -7 -4 -23 -6 -35 -4 -13
1 -23 -2 -23 -8 0 -6 -8 -11 -17 -12 -14 0 -13 -2 4 -9 14 -6 21 -15 17 -24
-4 -10 0 -14 13 -12 12 2 17 11 16 25 -3 23 4 26 26 12 21 -14 6 -39 -34 -55
-31 -13 -50 -46 -26 -46 5 0 4 -11 -2 -25 -7 -14 -18 -25 -24 -25 -7 0 -13 -6
-13 -14 0 -9 8 -12 25 -8 27 5 35 -12 10 -22 -18 -7 -20 -32 -2 -39 7 -3 5 -6
-5 -6 -24 -1 -23 -17 2 -24 11 -3 20 -10 20 -16 0 -11 -11 -14 -64 -15 -39 -1
-47 -26 -9 -26 38 0 61 -36 44 -69 -7 -12 -16 -19 -20 -17 -4 3 -16 -1 -26 -8
-12 -9 -29 -11 -51 -6 -18 4 -35 5 -38 2 -4 -3 -7 3 -8 14 0 10 -2 24 -2 31
-1 6 -10 21 -20 32 -19 21 -19 21 7 21 30 0 44 15 21 24 -8 3 -13 9 -10 14 2
4 -14 6 -36 4 -35 -4 -39 -2 -36 14 3 20 36 23 115 11 17 -2 37 0 45 4 23 15
-12 30 -59 26 -26 -3 -44 0 -46 7 -3 8 -8 7 -18 -1 -18 -17 -29 -16 -29 2 0 8
8 15 18 15 15 1 14 3 -5 19 -26 22 -21 56 10 66 14 4 17 8 10 12 -24 9 -13 23
17 23 17 0 30 5 30 10 0 18 -61 11 -101 -12 -36 -20 -38 -23 -23 -39 17 -19 0
-39 -18 -21 -7 7 -17 4 -32 -9 -14 -13 -29 -18 -44 -14 -18 4 -25 1 -29 -15
-3 -11 -11 -20 -19 -20 -28 0 -22 -19 13 -40 28 -16 38 -18 44 -8 4 7 11 10
14 6 4 -3 -4 -18 -16 -32 -25 -29 -84 -45 -102 -27 -8 8 -3 11 20 11 43 0 49
15 13 33 -32 16 -65 13 -92 -10 -11 -10 -18 -11 -23 -4 -10 18 -33 12 -46 -10
-8 -15 -8 -19 0 -15 6 4 11 2 11 -4 0 -12 67 -43 78 -36 5 3 14 0 22 -5 13 -8
13 -10 0 -18 -9 -7 -19 -6 -29 2 -12 11 -29 14 -93 17 -9 1 -26 -8 -38 -20
-15 -15 -25 -19 -32 -12 -14 14 0 35 19 28 8 -3 11 -2 8 4 -3 5 3 14 14 20 20
10 19 11 -3 35 -13 14 -29 25 -35 25 -7 0 -9 5 -6 10 4 6 12 10 18 9 7 -1 23
0 37 1 19 2 16 4 -14 10 -50 9 -99 6 -104 -8 -2 -6 6 -8 19 -5 16 4 20 2 17
-8 -3 -8 -10 -14 -17 -14 -7 0 -18 -8 -25 -17 -7 -10 -18 -18 -24 -18 -7 0
-19 -11 -28 -25 -9 -13 -24 -27 -35 -30 -17 -6 -17 -8 -4 -21 8 -9 15 -20 15
-25 0 -16 -38 -52 -48 -45 -6 3 -13 -6 -16 -20 -5 -17 -12 -24 -21 -20 -7 2
-24 -4 -38 -14 -30 -24 -73 -35 -81 -21 -4 6 5 16 21 23 15 7 33 16 38 21 6 4
19 14 30 23 14 10 15 14 5 13 -8 -1 -23 1 -33 6 -12 5 -24 2 -36 -9 -18 -16
-20 -16 -38 2 -10 10 -26 22 -35 25 -11 4 -19 22 -23 54 -4 26 -15 60 -26 75
-10 15 -19 35 -19 45 0 10 -13 31 -30 46 -32 30 -40 67 -15 67 10 0 15 -10 15
-27 0 -36 17 -18 26 27 7 31 6 34 -8 22 -13 -10 -18 -10 -24 -1 -5 8 -3 9 7 4
12 -8 12 -6 0 8 -7 9 -17 15 -21 12 -5 -3 -11 -1 -15 5 -3 5 -15 10 -27 10
-15 0 -19 5 -15 20 3 11 1 21 -4 21 -18 3 -24 5 -45 17 -18 9 -24 9 -35 -4 -7
-8 -20 -13 -30 -11 -29 8 -46 -9 -32 -32 10 -16 9 -20 -3 -25 -8 -3 -12 -10
-9 -16 8 -13 -4 -52 -15 -45 -11 7 -17 -13 -16 -65 1 -37 4 -44 18 -42 16 2
16 0 6 -23 -6 -14 -15 -25 -20 -25 -5 0 -6 5 -3 10 4 6 -5 10 -19 10 -29 0
-33 -12 -11 -30 8 -7 15 -17 15 -23 0 -7 -4 -7 -12 1 -19 19 -63 14 -93 -12
-15 -13 -40 -27 -55 -30 -31 -6 -47 -35 -28 -48 8 -6 -2 -7 -27 -3 -22 4 -42
10 -45 15 -3 4 -20 15 -38 24 -38 20 -77 13 -67 -12 5 -13 2 -12 -15 3 -25 23
-26 45 -1 45 26 0 18 28 -20 70 -17 18 -28 37 -25 44 3 7 5 7 5 -1 2 -21 18
-15 24 9 4 13 -1 30 -13 45 -10 13 -17 33 -15 43 3 13 -2 20 -12 20 -11 0 -14
-7 -11 -25 6 -30 -11 -45 -24 -21 -5 9 -17 16 -27 16 -33 0 -43 24 -20 48 16
18 18 26 9 42 -6 11 -17 20 -25 20 -8 0 -15 8 -16 18 0 9 -2 31 -3 48 -2 19 1
31 9 31 7 0 10 -10 7 -23 -5 -27 14 -64 32 -64 14 0 26 30 26 66 0 12 7 24 15
28 8 3 15 10 15 16 0 6 -4 9 -9 6 -17 -11 -19 21 -6 95 13 78 6 119 -20 119
-8 0 -15 5 -15 12 0 6 -3 9 -6 5 -3 -3 -2 -12 2 -19 10 -16 5 -69 -8 -85 -5
-7 -7 -17 -4 -22 4 -5 2 -12 -4 -16 -6 -4 -10 6 -10 24 0 20 -5 31 -14 31 -8
0 -17 7 -20 16 -3 8 -2 13 3 10 18 -12 29 22 28 91 0 44 5 78 13 88 7 8 9 15
4 15 -5 1 0 9 12 18 12 10 26 28 33 40 6 12 30 31 52 43 26 13 44 31 50 49 7
20 19 31 39 35 19 4 30 13 32 28 2 13 12 23 27 27 16 3 33 23 52 59 37 68 36
88 -1 109 -30 17 -44 59 -15 49 8 -4 17 -2 20 3 3 6 20 9 38 7 28 -2 32 1 37
28 3 20 14 34 33 43 15 7 30 24 33 37 3 14 10 22 15 19 5 -3 7 -9 4 -14 -3 -4
2 -11 11 -14 26 -10 34 -7 34 14 0 11 -7 20 -15 20 -8 0 -12 6 -9 14 4 10 -2
12 -20 9 -15 -3 -26 -12 -27 -22 0 -12 -2 -11 -9 4 -7 18 -8 16 -11 -10 -3
-19 -9 -29 -18 -27 -27 6 -51 -9 -51 -33 0 -23 -2 -23 -57 -18 -32 3 -60 7
-61 9 -2 1 -5 29 -6 62 -3 54 -1 59 17 58 14 -1 21 -9 22 -24 3 -35 33 -52 69
-39 44 14 49 22 34 46 -9 15 -20 20 -34 16 -13 -3 -27 2 -35 11 -11 14 -10 19
10 35 13 11 29 19 37 19 8 0 14 5 14 11 0 5 -4 8 -9 5 -5 -3 -8 2 -7 12 1 14
-7 17 -51 16 -29 -1 -53 2 -53 7 0 5 -5 9 -11 9 -6 0 -19 10 -30 23 -15 17
-18 19 -19 6 0 -10 -11 -19 -25 -21 -32 -7 -39 1 -19 24 16 16 15 18 -7 26
-25 10 -64 1 -110 -23 -14 -8 -43 -18 -65 -23 -38 -8 -40 -8 -40 15 0 26 6 29
24 11 8 -8 15 -8 27 2 8 7 15 9 15 6 0 -4 9 -2 20 4 11 6 20 17 20 25 0 8 3
14 8 14 4 -1 18 -1 32 0 26 1 57 36 41 46 -5 3 -11 1 -13 -5z m-58 -150 c0 -5
-7 -10 -16 -10 -8 0 -12 5 -9 10 3 6 10 10 16 10 5 0 9 -4 9 -10z m110 0 c0
-5 -2 -10 -4 -10 -3 0 -8 5 -11 10 -3 6 -1 10 4 10 6 0 11 -4 11 -10z m-132
-75 c-11 -11 -37 7 -31 22 5 13 8 13 21 -1 9 -9 13 -18 10 -21z m-48 -34 c0
-13 -27 -21 -45 -15 -25 10 -17 24 15 24 17 0 30 -4 30 -9z m-140 -61 c0 -5
-6 -10 -14 -10 -8 0 -18 5 -21 10 -3 6 3 10 14 10 12 0 21 -4 21 -10z m32
-212 c-9 -9 -12 -7 -12 12 0 19 3 21 12 12 9 -9 9 -15 0 -24z m346 -14 c-13
-13 -16 -13 -28 0 -10 13 -9 17 11 25 29 10 38 -4 17 -25z m-273 4 c6 -4 2 -8
-7 -8 -10 0 -18 7 -18 17 0 9 3 12 8 7 4 -5 12 -12 17 -16z m174 -73 l23 -7
-25 -17 c-24 -15 -24 -18 -9 -28 15 -11 15 -13 2 -22 -22 -15 -28 -14 -35 9
-3 11 -10 20 -15 20 -5 0 -14 -9 -20 -20 -11 -20 -50 -28 -50 -10 0 16 40 51
51 45 6 -4 7 3 3 20 -8 33 13 51 36 31 8 -8 26 -17 39 -21z m-94 5 c3 -5 -3
-10 -14 -10 -12 0 -21 5 -21 10 0 6 6 10 14 10 8 0 18 -4 21 -10z m-68 -32
c-3 -8 -6 -5 -6 6 -1 11 2 17 5 13 3 -3 4 -12 1 -19z m78 -126 c3 -10 -4 -25
-20 -39 -18 -17 -25 -20 -25 -9 0 8 -6 16 -12 19 -10 3 -10 7 1 20 7 9 11 23
8 31 -5 13 -2 13 18 4 13 -6 27 -18 30 -26z m-108 -24 c-3 -7 -5 -2 -5 12 0
14 2 19 5 13 2 -7 2 -19 0 -25z m41 -73 c10 -9 -22 -46 -36 -43 -9 2 -26 -4
-36 -14 -10 -9 -23 -15 -27 -12 -14 8 3 35 27 45 13 4 24 16 24 24 0 12 6 15
23 9 12 -3 23 -8 25 -9z m2245 -68 c3 -8 -1 -14 -9 -14 -15 0 -18 9 -7 20 9 9
10 9 16 -6z m-2333 -117 c0 -5 -4 -10 -10 -10 -5 0 -10 5 -10 10 0 6 5 10 10
10 6 0 10 -4 10 -10z m90 -121 c0 -3 -7 -6 -15 -6 -17 0 -17 0 -9 22 5 13 8
14 15 3 5 -7 9 -16 9 -19z m-50 -70 c0 -5 5 -7 12 -3 7 4 8 3 4 -4 -10 -16
-23 -15 -30 3 -3 8 -1 15 4 15 6 0 10 -5 10 -11z m110 3 c0 -10 -21 -32 -31
-32 -4 0 -5 9 -2 20 5 19 33 29 33 12z m-70 -92 c0 -5 -5 -10 -11 -10 -5 0 -7
5 -4 10 3 6 8 10 11 10 2 0 4 -4 4 -10z m-135 -20 c3 -5 1 -10 -4 -10 -6 0
-11 5 -11 10 0 6 2 10 4 10 3 0 8 -4 11 -10z m2320 -70 c-3 -5 -10 -10 -16
-10 -5 0 -9 5 -9 10 0 6 7 10 16 10 8 0 12 -4 9 -10z m-2355 -38 c0 -4 -9 -13
-20 -20 -19 -12 -20 -11 -8 8 13 20 28 27 28 12z m172 -54 c-9 -9 -12 -7 -12
12 0 19 3 21 12 12 9 -9 9 -15 0 -24z m-262 -8 c0 -5 -4 -10 -10 -10 -5 0 -10
5 -10 10 0 6 5 10 10 10 6 0 10 -4 10 -10z m2038 -17 c8 -8 13 -15 11 -17 -7
-5 -89 15 -89 22 0 13 64 9 78 -5z m-1778 -15 c0 -6 -7 -20 -17 -30 -9 -11
-11 -18 -5 -18 7 0 12 -4 12 -9 0 -14 -42 -21 -62 -10 -13 7 -20 6 -23 -4 -4
-8 -23 -13 -56 -14 -42 -1 -48 1 -37 14 8 10 25 13 50 11 25 -2 39 1 43 10 2
7 13 12 22 10 12 -2 18 3 18 17 0 11 5 23 10 27 16 12 45 9 45 -4z m1752 -40
c-9 -9 -15 -9 -24 0 -9 9 -7 12 12 12 19 0 21 -3 12 -12z m-1613 -56 c-12 -2
-25 1 -29 8 -4 6 -17 12 -29 13 l-23 1 21 17 c20 16 22 16 51 -9 30 -26 30
-27 9 -30z m-93 13 c-8 -23 -25 -9 -19 16 4 13 9 17 16 10 5 -5 7 -17 3 -26z
m1309 -15 c3 -5 1 -10 -4 -10 -6 0 -11 5 -11 10 0 6 2 10 4 10 3 0 8 -4 11
-10z m-1454 -33 c-16 -16 -26 0 -10 19 9 11 15 12 17 4 2 -6 -1 -17 -7 -23z
m96 -3 c-3 -4 -19 -3 -34 1 -27 6 -27 7 -8 21 17 12 21 12 34 -1 8 -8 12 -17
8 -21z m110 0 c-3 -3 -12 -4 -19 -1 -8 3 -5 6 6 6 11 1 17 -2 13 -5z m1170
-48 c-6 -13 -17 -21 -24 -19 -7 3 -13 -2 -13 -11 0 -9 -4 -16 -10 -16 -5 0
-10 12 -10 26 0 19 4 25 15 20 8 -3 21 1 27 9 20 22 27 18 15 -9z m-1150 -2
c-3 -3 -12 -4 -19 -1 -8 3 -5 6 6 6 11 1 17 -2 13 -5z m1203 -30 c0 -17 -26
-19 -36 -3 -7 12 15 31 28 23 4 -3 8 -12 8 -20z m-1233 -1 c3 -7 -10 -11 -31
-11 -19 0 -39 -3 -45 -6 -5 -4 -12 -2 -15 3 -7 11 29 25 43 16 5 -3 13 -1 16
5 8 13 27 8 32 -7z m833 7 c0 -5 -4 -10 -10 -10 -5 0 -10 5 -10 10 0 6 5 10
10 10 6 0 10 -4 10 -10z m609 -6 c-13 -16 -65 -19 -74 -5 -6 10 12 15 57 17
23 1 26 -2 17 -12z m-1569 -4 c0 -5 -7 -10 -16 -10 -8 0 -12 5 -9 10 3 6 10
10 16 10 5 0 9 -4 9 -10z m284 -6 c9 -3 16 -14 15 -23 0 -10 -2 -11 -6 -3 -2
6 -9 10 -14 6 -12 -7 -31 5 -24 17 7 11 9 11 29 3z m-64 -14 c0 -5 -5 -10 -11
-10 -6 0 -17 -7 -26 -15 -8 -9 -18 -14 -21 -11 -6 7 37 46 50 46 4 0 8 -4 8
-10z m1798 -22 c-18 -33 -28 -37 -62 -31 -21 5 -27 3 -22 -6 5 -7 14 -10 22
-7 22 8 16 -12 -6 -24 -17 -9 -22 -7 -29 12 -5 14 -5 28 1 35 7 9 5 15 -7 19
-13 5 -14 9 -4 15 7 4 19 3 25 -2 14 -12 77 -2 83 12 1 6 5 8 8 6 2 -3 -2 -16
-9 -29z m-2084 6 c3 -9 6 -23 6 -32 0 -23 -23 1 -27 28 -3 24 12 27 21 4z
m446 -4 c0 -5 -4 -10 -9 -10 -5 0 -17 -7 -26 -17 -14 -14 -18 -14 -26 -2 -6
10 -3 15 9 17 9 2 21 8 27 13 12 12 25 11 25 -1z m824 -31 c-13 -15 -15 -22
-6 -31 15 -15 16 -31 0 -22 -8 5 -9 2 -5 -10 4 -11 1 -19 -9 -23 -24 -9 -35
17 -18 42 8 12 11 25 7 28 -9 10 28 48 39 41 5 -3 1 -15 -8 -25z m81 11 c-3
-5 -12 -10 -20 -10 -8 0 -17 5 -20 10 -4 6 5 10 20 10 15 0 24 -4 20 -10z
m725 -41 c0 -6 -4 -7 -10 -4 -5 3 -10 11 -10 16 0 6 5 7 10 4 6 -3 10 -11 10
-16z m-720 -9 c0 -5 -9 -10 -21 -10 -11 0 -17 5 -14 10 3 6 13 10 21 10 8 0
14 -4 14 -10z m-150 -40 c0 -15 -24 -24 -28 -12 -2 7 -9 9 -15 5 -7 -4 -7 0 1
9 13 16 42 14 42 -2z m148 7 c6 3 12 -1 12 -8 0 -7 7 -20 15 -29 10 -11 13
-27 9 -48 -7 -36 -27 -44 -22 -9 2 18 -2 23 -24 25 -20 2 -28 9 -28 23 0 11 5
17 10 14 6 -3 10 1 10 10 0 9 -4 13 -10 10 -13 -8 -32 4 -25 16 4 5 13 5 23 0
9 -4 23 -6 30 -4z m-1122 -92 c-7 -19 -42 -20 -49 -1 -3 8 1 20 9 27 8 7 13
18 10 25 -2 6 -2 15 1 18 10 10 36 -52 29 -69z m-231 49 c9 -13 16 -14 33 -5
42 22 54 15 47 -28 -4 -24 -2 -41 4 -46 18 -10 4 -23 -21 -19 -31 5 -66 -26
-70 -62 -2 -22 -9 -30 -27 -32 l-24 -4 22 31 c21 29 21 32 5 38 -12 4 -25 -2
-41 -21 -17 -20 -23 -23 -23 -11 0 27 20 56 38 54 39 -3 47 2 22 16 -14 8 -22
14 -18 15 4 0 1 12 -7 26 -17 33 -9 57 16 49 11 -4 19 -2 19 4 0 16 11 13 25
-5z m135 -29 c0 -8 -4 -15 -10 -15 -5 0 -10 7 -10 15 0 8 5 15 10 15 6 0 10
-7 10 -15z m310 5 c0 -5 -2 -10 -4 -10 -3 0 -8 5 -11 10 -3 6 -1 10 4 10 6 0
11 -4 11 -10z m47 4 c-3 -3 -12 -4 -19 -1 -8 3 -5 6 6 6 11 1 17 -2 13 -5z
m690 0 c-3 -3 -12 -4 -19 -1 -8 3 -5 6 6 6 11 1 17 -2 13 -5z m271 -31 c2 -9
-7 -13 -27 -13 -30 0 -39 9 -24 24 11 10 46 3 51 -11z m-1178 -12 c0 -20 -26
-36 -35 -21 -5 7 20 40 31 40 2 0 4 -9 4 -19z m1845 -1 c-3 -5 -16 -10 -28
-10 -18 0 -19 2 -7 10 20 13 43 13 35 0z m-98 -6 c-3 -3 -12 -4 -19 -1 -8 3
-5 6 6 6 11 1 17 -2 13 -5z m-2180 -30 c-9 -9 -28 6 -21 18 4 6 10 6 17 -1 6
-6 8 -13 4 -17z m323 -46 c-1 -36 -3 -40 -13 -28 -8 11 -28 15 -65 14 -34 0
-51 3 -49 10 2 6 12 10 23 9 10 -1 23 5 28 12 6 8 22 16 36 18 14 2 28 5 33 6
4 0 7 -18 7 -41z m1220 32 c0 -5 -7 -7 -15 -4 -8 4 -15 8 -15 10 0 2 7 4 15 4
8 0 15 -4 15 -10z m-1071 -32 l23 -3 -20 -25 c-20 -25 -21 -25 -50 -7 -17 9
-32 17 -35 17 -3 0 -8 -8 -10 -17 -4 -15 -5 -15 -6 2 0 11 6 31 15 43 15 21
18 22 38 8 12 -8 33 -16 45 -18z m1751 22 c0 -5 -9 -10 -21 -10 -11 0 -17 5
-14 10 3 6 13 10 21 10 8 0 14 -4 14 -10z m-1760 -104 c0 -2 -7 -7 -16 -10 -8
-3 -12 -2 -9 4 6 10 25 14 25 6z m2040 -25 c0 -5 -7 -11 -15 -15 -15 -5 -20 5
-8 17 9 10 23 9 23 -2z m-2350 -21 c0 -5 -7 -10 -16 -10 -8 0 -12 5 -9 10 3 6
10 10 16 10 5 0 9 -4 9 -10z m-150 -10 c0 -5 -7 -10 -15 -10 -8 0 -15 5 -15
10 0 6 7 10 15 10 8 0 15 -4 15 -10z m2078 -125 c6 -3 12 -9 12 -15 0 -7 -18
-10 -47 -8 -37 2 -49 7 -51 21 -3 16 1 17 35 12 21 -4 44 -8 51 -10z m35 -20
c-7 -21 -13 -19 -13 6 0 11 4 18 10 14 5 -3 7 -12 3 -20z m47 -49 c0 -9 -7
-12 -20 -9 -11 3 -20 9 -20 14 0 5 9 9 20 9 11 0 20 -6 20 -14z m-111 -13 c-7
-10 -15 -20 -16 -22 -2 -2 -3 5 -3 17 0 14 6 22 16 22 14 0 15 -3 3 -17z"/>
<path d="M240 561 c0 -5 5 -13 10 -16 6 -3 10 -2 10 4 0 5 -4 13 -10 16 -5 3
-10 2 -10 -4z"/>
<path d="M605 2500 c-11 -17 5 -32 21 -19 7 6 11 15 8 20 -7 12 -21 11 -29 -1z"/>
<path d="M1070 2480 c0 -6 7 -10 15 -10 8 0 15 2 15 4 0 2 -7 6 -15 10 -8 3
-15 1 -15 -4z"/>
<path d="M2320 2466 c0 -9 5 -16 10 -16 6 0 10 4 10 9 0 6 -4 13 -10 16 -5 3
-10 -1 -10 -9z"/>
<path d="M770 2440 c0 -5 5 -10 11 -10 5 0 7 5 4 10 -3 6 -8 10 -11 10 -2 0
-4 -4 -4 -10z"/>
<path d="M2330 2397 c0 -24 37 -49 61 -42 14 5 18 10 10 14 -6 4 -9 15 -5 24
5 14 0 17 -30 17 -23 0 -36 -5 -36 -13z"/>
<path d="M255 2390 c3 -5 10 -10 16 -10 5 0 9 5 9 10 0 6 -7 10 -16 10 -8 0
-12 -4 -9 -10z"/>
<path d="M885 2370 c3 -5 13 -10 21 -10 8 0 14 5 14 10 0 6 -9 10 -21 10 -11
0 -17 -4 -14 -10z"/>
<path d="M853 2363 c-15 -5 -17 -23 -4 -23 5 0 11 7 15 15 3 8 4 15 3 14 -1 0
-8 -3 -14 -6z"/>
<path d="M40 2322 c-8 -4 -15 -20 -15 -37 0 -48 46 -30 51 20 3 25 -7 30 -36
17z"/>
<path d="M2367 2313 c-10 -21 -6 -78 8 -99 14 -21 13 -23 -7 -30 -20 -6 -19
-7 11 -20 26 -11 31 -18 26 -34 -5 -16 -2 -20 14 -20 24 0 26 13 10 59 -8 23
-8 35 0 45 15 18 3 46 -18 46 -27 0 -33 12 -13 26 15 12 15 15 2 24 -18 12
-28 13 -33 3z"/>
<path d="M940 2300 c-12 -8 -9 -10 13 -10 15 0 27 5 27 10 0 13 -20 13 -40 0z"/>
<path d="M880 2290 c0 -13 11 -13 30 0 12 8 11 10 -7 10 -13 0 -23 -4 -23 -10z"/>
<path d="M376 2265 c-9 -9 -13 -21 -10 -27 3 -5 13 0 21 12 19 26 11 37 -11
15z"/>
<path d="M2305 2270 c-7 -12 2 -30 16 -30 5 0 9 9 9 20 0 21 -15 27 -25 10z"/>
<path d="M1000 2260 c0 -5 5 -10 10 -10 6 0 10 5 10 10 0 6 -4 10 -10 10 -5 0
-10 -4 -10 -10z"/>
<path d="M512 2221 c-10 -6 -10 -10 1 -20 17 -14 47 -4 47 15 0 15 -28 18 -48
5z"/>
<path d="M220 2130 c19 -13 30 -13 30 0 0 6 -10 10 -22 10 -19 0 -20 -2 -8
-10z"/>
<path d="M2330 2125 c0 -9 5 -15 11 -13 6 2 11 8 11 13 0 5 -5 11 -11 13 -6 2
-11 -4 -11 -13z"/>
<path d="M2340 2081 c0 -6 15 -11 32 -13 38 -4 54 -38 18 -38 -12 0 -18 -4
-15 -10 4 -6 11 -8 16 -5 5 4 9 1 9 -4 0 -6 11 -11 25 -11 34 0 32 -20 -2 -21
-18 -1 -22 -3 -10 -6 21 -5 18 -27 -4 -29 -38 -3 -43 -4 -33 -13 5 -4 24 -11
43 -15 27 -5 32 -3 27 9 -4 11 2 15 19 15 16 0 25 6 25 15 0 8 -4 15 -8 15
-14 0 -28 43 -26 75 2 16 -2 33 -9 37 -17 11 -107 10 -107 -1z"/>
<path d="M1246 2023 c-8 -8 -8 -86 0 -107 13 -34 24 -14 24 43 0 56 -9 79 -24
64z"/>
<path d="M1598 1833 c7 -3 16 -2 19 1 4 3 -2 6 -13 5 -11 0 -14 -3 -6 -6z"/>
<path d="M544 1595 c-7 -29 -1 -41 15 -30 14 8 14 55 1 55 -5 0 -12 -11 -16
-25z"/>
<path d="M1880 1574 c0 -11 8 -14 27 -12 39 4 42 28 4 28 -21 0 -31 -5 -31
-16z"/>
<path d="M1815 1540 c-3 -5 1 -10 9 -10 9 0 16 5 16 10 0 6 -4 10 -9 10 -6 0
-13 -4 -16 -10z"/>
<path d="M1820 1480 c0 -5 5 -10 10 -10 6 0 10 5 10 10 0 6 -4 10 -10 10 -5 0
-10 -4 -10 -10z"/>
<path d="M2310 1420 c0 -5 5 -10 11 -10 5 0 7 5 4 10 -3 6 -8 10 -11 10 -2 0
-4 -4 -4 -10z"/>
<path d="M2346 1413 c-11 -11 -6 -23 9 -23 8 0 15 4 15 9 0 13 -16 22 -24 14z"/>
<path d="M565 1359 c-4 -6 -5 -12 -2 -15 7 -7 37 7 37 17 0 13 -27 11 -35 -2z"/>
<path d="M1433 1335 c0 -8 4 -15 9 -15 4 0 8 7 8 15 0 8 -4 15 -8 15 -5 0 -9
-7 -9 -15z"/>
<path d="M2339 1314 c-12 -14 -11 -16 5 -13 11 2 21 10 24 17 5 17 -13 15 -29
-4z"/>
<path d="M1826 1303 c5 -5 12 -12 16 -18 4 -6 8 -2 8 8 0 9 -7 17 -17 17 -9 0
-12 -3 -7 -7z"/>
<path d="M1290 1293 c0 -5 5 -14 12 -21 9 -9 9 -18 0 -37 -16 -34 -15 -34 8
-28 27 7 36 23 19 34 -11 6 -10 11 4 27 12 13 13 19 5 19 -7 0 -21 4 -30 8
-10 4 -18 3 -18 -2z"/>
<path d="M1485 1280 c3 -5 8 -10 11 -10 2 0 4 5 4 10 0 6 -5 10 -11 10 -5 0
-7 -4 -4 -10z"/>
<path d="M2355 1270 c3 -5 8 -10 11 -10 2 0 4 5 4 10 0 6 -5 10 -11 10 -5 0
-7 -4 -4 -10z"/>
<path d="M1838 1252 c-24 -5 -23 -32 1 -32 11 0 22 4 25 8 8 13 -8 28 -26 24z"/>
<path d="M503 1228 c1 -8 -7 -12 -20 -11 -25 3 -37 -25 -31 -68 3 -26 35 -39
35 -15 0 8 -4 13 -9 10 -4 -3 -8 4 -8 15 0 25 17 27 41 5 16 -15 17 -14 12 6
-4 15 0 26 11 32 13 8 15 13 5 24 -14 17 -40 19 -36 2z"/>
<path d="M2142 1215 c10 -11 48 -14 48 -4 0 5 -12 9 -27 9 -14 0 -24 -2 -21
-5z"/>
<path d="M1695 1200 c-3 -5 -1 -10 4 -10 6 0 11 5 11 10 0 6 -2 10 -4 10 -3 0
-8 -4 -11 -10z"/>
<path d="M2037 1194 c-9 -10 2 -24 18 -24 9 0 12 6 9 15 -6 16 -17 19 -27 9z"/>
<path d="M1655 1170 c-3 -5 -1 -10 4 -10 6 0 11 5 11 10 0 6 -2 10 -4 10 -3 0
-8 -4 -11 -10z"/>
<path d="M1966 1161 c-8 -12 21 -34 33 -27 6 4 8 13 4 21 -6 17 -29 20 -37 6z"/>
<path d="M1605 1153 c-31 -7 -41 -21 -21 -29 11 -4 24 1 37 15 20 21 19 22
-16 14z"/>
<path d="M1765 1150 c-3 -4 -1 -19 4 -32 6 -12 10 -17 10 -9 1 7 7 11 16 7 8
-3 21 4 29 16 19 27 9 40 -10 14 -8 -11 -14 -15 -14 -9 0 14 -28 25 -35 13z"/>
<path d="M1690 1140 c0 -5 5 -10 10 -10 6 0 10 5 10 10 0 6 -4 10 -10 10 -5 0
-10 -4 -10 -10z"/>
<path d="M1880 1139 c0 -5 5 -7 10 -4 6 3 10 8 10 11 0 2 -4 4 -10 4 -5 0 -10
-5 -10 -11z"/>
<path d="M1873 1099 c9 -5 21 -8 26 -4 5 3 16 -1 24 -9 13 -13 17 -13 32 4 18
20 17 20 -41 20 -45 -1 -55 -3 -41 -11z"/>
<path d="M2000 1100 c0 -5 11 -10 25 -10 14 0 25 5 25 10 0 6 -11 10 -25 10
-14 0 -25 -4 -25 -10z"/>
<path d="M2170 1090 c-11 -7 -7 -10 18 -10 17 0 32 5 32 10 0 13 -30 13 -50 0z"/>
<path d="M1583 1083 c9 -2 23 -2 30 0 6 3 -1 5 -18 5 -16 0 -22 -2 -12 -5z"/>
<path d="M1663 1055 c4 -9 7 -25 7 -36 0 -12 7 -19 20 -19 11 0 20 5 20 11 0
5 4 8 9 5 5 -3 14 0 20 8 14 17 -2 31 -48 41 -29 6 -33 5 -28 -10z"/>
<path d="M1798 1063 c-29 -4 -36 -17 -17 -29 6 -3 15 -1 19 6 6 9 9 9 15 1 5
-9 10 -9 21 0 13 11 10 31 -4 28 -4 -1 -19 -4 -34 -6z"/>
<path d="M1910 1056 c0 -9 -4 -14 -10 -11 -5 3 -10 2 -10 -4 0 -18 17 -21 30
-5 10 11 10 18 2 26 -9 9 -12 8 -12 -6z"/>
<path d="M2140 1049 c0 -11 4 -18 9 -14 5 3 12 1 16 -5 8 -13 25 -13 25 1 0
14 -25 39 -39 39 -6 0 -11 -9 -11 -21z"/>
<path d="M2200 1030 c0 -5 4 -10 9 -10 6 0 13 5 16 10 3 6 -1 10 -9 10 -9 0
-16 -4 -16 -10z"/>
<path d="M1570 965 c-10 -13 -9 -15 9 -15 11 0 21 4 21 9 0 18 -18 21 -30 6z"/>
<path d="M867 957 c-3 -8 1 -14 9 -14 16 0 19 13 5 21 -5 3 -11 0 -14 -7z"/>
<path d="M1505 930 c4 -6 11 -8 16 -5 14 9 11 15 -7 15 -8 0 -12 -5 -9 -10z"/>
<path d="M1486 884 c-8 -21 -8 -24 3 -24 12 0 22 28 12 35 -5 3 -12 -2 -15
-11z"/>
<path d="M2216 870 c-26 -9 -10 -18 49 -29 51 -10 73 4 23 14 -18 4 -37 11
-43 15 -5 4 -19 4 -29 0z"/>
<path d="M2500 167 c0 -8 7 -18 16 -21 11 -4 14 -1 12 11 -4 21 -28 30 -28 10z"/>
</g>
</svg>
